<svg width="363" height="66" viewBox="0 0 363 66" fill="none" xmlns="http://www.w3.org/2000/svg">
<path d="M19.904 64.512C18.2827 64.512 16.384 64.448 14.208 64.32C9.216 64.1067 5.504 64 3.072 64C2.13333 62.848 1.664 61.504 1.664 59.968C3.11467 59.968 4.13867 59.7333 4.736 59.264C5.33333 58.752 5.632 57.8987 5.632 56.704V26.624C5.632 25.4293 5.33333 24.5973 4.736 24.128C4.13867 23.616 3.11467 23.36 1.664 23.36C1.664 21.824 2.13333 20.48 3.072 19.328C5.46133 19.328 9.152 19.264 14.144 19.136C16.3627 19.0507 17.8773 19.008 18.688 19.008C25.3867 19.008 30.1227 20.0533 32.896 22.144C35.6693 24.2347 37.056 26.7733 37.056 29.76C37.056 32.2347 36.416 34.3253 35.136 36.032C33.8987 37.696 31.8293 39.1253 28.928 40.32C32.7253 41.088 35.4347 42.304 37.056 43.968C38.6773 45.632 39.488 48.128 39.488 51.456C39.488 60.16 32.96 64.512 19.904 64.512ZM18.112 38.784C23.8293 38.784 26.688 36.2667 26.688 31.232C26.688 28.8427 26.0267 26.9867 24.704 25.664C23.424 24.3413 21.4613 23.68 18.816 23.68C17.6213 23.68 16.7467 23.7653 16.192 23.936V38.656C16.96 38.7413 17.6 38.784 18.112 38.784ZM18.88 59.84C24.8533 59.84 27.84 57.2587 27.84 52.096C27.84 49.152 27.0933 46.976 25.6 45.568C24.1067 44.1173 21.6747 43.392 18.304 43.392L16.192 43.456V59.648C17.344 59.776 18.24 59.84 18.88 59.84ZM61.876 64.832C57.78 64.832 54.2387 63.8933 51.252 62.016C48.308 60.096 46.0467 57.3867 44.468 53.888C42.8893 50.3893 42.1 46.336 42.1 41.728C42.1 36.9067 42.9107 32.768 44.532 29.312C46.1533 25.8133 48.436 23.1467 51.38 21.312C54.3667 19.4773 57.844 18.56 61.812 18.56C65.908 18.56 69.4493 19.52 72.436 21.44C75.4227 23.36 77.7053 26.0693 79.284 29.568C80.9053 33.024 81.716 37.0773 81.716 41.728C81.716 46.5067 80.884 50.6453 79.22 54.144C77.5987 57.6 75.2947 60.2453 72.308 62.08C69.3213 63.9147 65.844 64.832 61.876 64.832ZM61.876 60.16C64.2227 60.16 66.1213 58.816 67.572 56.128C69.0653 53.44 69.812 48.5547 69.812 41.472C69.812 34.7307 69.1293 30.016 67.764 27.328C66.3987 24.64 64.4787 23.296 62.004 23.296C59.6573 23.296 57.7373 24.64 56.244 27.328C54.7933 30.016 54.068 34.88 54.068 41.92C54.068 48.6613 54.7507 53.3973 56.116 56.128C57.524 58.816 59.444 60.16 61.876 60.16ZM104.689 64.832C100.593 64.832 97.0512 63.8933 94.0645 62.016C91.1205 60.096 88.8592 57.3867 87.2805 53.888C85.7018 50.3893 84.9125 46.336 84.9125 41.728C84.9125 36.9067 85.7232 32.768 87.3445 29.312C88.9658 25.8133 91.2485 23.1467 94.1925 21.312C97.1792 19.4773 100.657 18.56 104.625 18.56C108.721 18.56 112.262 19.52 115.249 21.44C118.235 23.36 120.518 26.0693 122.097 29.568C123.718 33.024 124.529 37.0773 124.529 41.728C124.529 46.5067 123.697 50.6453 122.033 54.144C120.411 57.6 118.107 60.2453 115.121 62.08C112.134 63.9147 108.657 64.832 104.689 64.832ZM104.689 60.16C107.035 60.16 108.934 58.816 110.385 56.128C111.878 53.44 112.625 48.5547 112.625 41.472C112.625 34.7307 111.942 30.016 110.577 27.328C109.211 24.64 107.291 23.296 104.817 23.296C102.47 23.296 100.55 24.64 99.0565 27.328C97.6058 30.016 96.8805 34.88 96.8805 41.92C96.8805 48.6613 97.5632 53.3973 98.9285 56.128C100.337 58.816 102.257 60.16 104.689 60.16ZM159.277 49.088C159.362 49.216 160.045 50.304 161.325 52.352C162.861 54.8267 164.098 56.5973 165.037 57.664C166.018 58.688 167.213 59.2853 168.621 59.456V62.016C167.896 62.9973 167.042 63.7227 166.061 64.192C165.08 64.6613 163.778 64.896 162.157 64.896C159.938 64.896 158.104 64.4267 156.653 63.488C155.245 62.5493 154.2 61.5467 153.517 60.48C152.877 59.4133 152.002 57.7707 150.893 55.552C149.357 52.48 147.906 49.8773 146.541 47.744C145.218 45.6107 143.853 44.2453 142.445 43.648V56.704C142.445 57.8987 142.722 58.7307 143.277 59.2C143.874 59.6693 144.877 59.904 146.285 59.904C146.285 60.672 146.157 61.4187 145.901 62.144C145.645 62.8693 145.304 63.488 144.877 64H129.197C128.77 63.488 128.429 62.8693 128.173 62.144C127.917 61.4187 127.789 60.672 127.789 59.904C129.197 59.904 130.178 59.6693 130.733 59.2C131.33 58.7307 131.629 57.8987 131.629 56.704V26.624C131.629 25.4293 131.33 24.5973 130.733 24.128C130.178 23.616 129.197 23.36 127.789 23.36C127.789 22.6347 127.917 21.9093 128.173 21.184C128.429 20.4587 128.77 19.84 129.197 19.328H144.877C145.304 19.84 145.645 20.4587 145.901 21.184C146.157 21.9093 146.285 22.6347 146.285 23.36C144.877 23.36 143.874 23.616 143.277 24.128C142.722 24.5973 142.445 25.4293 142.445 26.624V39.296C143.426 39.296 144.216 39.3387 144.813 39.424L153.837 27.456C154.392 26.7733 154.669 26.0053 154.669 25.152C154.669 24.64 154.264 24.2133 153.453 23.872C152.685 23.5307 151.853 23.36 150.957 23.36C150.957 22.6773 151.085 21.9733 151.341 21.248C151.597 20.5227 151.96 19.8827 152.429 19.328H167.341C167.768 19.8827 168.109 20.5227 168.365 21.248C168.621 21.9733 168.749 22.6773 168.749 23.36C166.061 23.36 163.928 24.384 162.349 26.432L150.253 40.768C152.216 41.664 153.858 42.752 155.181 44.032C156.546 45.312 157.912 46.9973 159.277 49.088Z" fill="#E2E2E2"/>
<path d="M207.44 56.704C207.44 58.88 208.997 59.968 212.112 59.968C212.112 61.4613 211.621 62.8053 210.64 64H197.328C196.389 62.848 195.92 61.504 195.92 59.968C197.413 59.968 198.523 59.712 199.248 59.2C199.973 58.688 200.336 57.856 200.336 56.704V26.624C200.336 24.448 198.779 23.36 195.664 23.36C195.664 22.6347 195.792 21.9093 196.048 21.184C196.304 20.4587 196.645 19.84 197.072 19.328H205.968C207.205 19.328 208.443 19.8187 209.68 20.8C210.917 21.7387 212.091 23.0613 213.2 24.768L227.728 47.744V26.624C227.728 25.472 227.344 24.64 226.576 24.128C225.808 23.616 224.677 23.36 223.184 23.36C223.184 22.592 223.312 21.8667 223.568 21.184C223.824 20.4587 224.187 19.84 224.656 19.328H238.288C238.757 19.84 239.12 20.4587 239.376 21.184C239.632 21.9093 239.76 22.6347 239.76 23.36C238.309 23.36 237.2 23.616 236.432 24.128C235.707 24.64 235.344 25.472 235.344 26.624V64.384H232.784C230.693 64.384 229.157 64.128 228.176 63.616C227.195 63.0613 226.256 62.1227 225.36 60.8L207.44 33.6V56.704ZM278.649 50.496C278.649 51.904 278.307 54.4213 277.625 58.048C276.942 61.632 276.323 63.9573 275.769 65.024C275.086 64.8533 274.19 64.512 273.081 64H243.449C242.467 62.72 241.977 61.376 241.977 59.968C243.427 59.968 244.494 59.712 245.177 59.2C245.859 58.688 246.201 57.8347 246.201 56.64V26.624C246.201 25.472 245.859 24.64 245.177 24.128C244.537 23.616 243.491 23.36 242.041 23.36C242.041 21.952 242.531 20.608 243.513 19.328H268.345C269.07 18.9867 269.902 18.7307 270.841 18.56C271.822 18.3467 272.718 18.24 273.529 18.24C274.169 19.4773 274.851 21.184 275.576 23.36C276.345 25.536 276.729 27.1147 276.729 28.096C276.217 28.5653 275.342 29.056 274.104 29.568C272.867 30.08 271.801 30.4213 270.905 30.592C270.35 29.0133 269.475 27.648 268.281 26.496C267.086 25.344 265.699 24.768 264.121 24.768H256.889V38.272H261.497C264.27 38.272 265.657 36.7147 265.657 33.6C267.577 33.6 269.305 34.048 270.841 34.944V46.848C270.158 47.2747 269.369 47.616 268.473 47.872C267.577 48.0853 266.659 48.192 265.721 48.192C265.721 46.5707 265.337 45.3547 264.569 44.544C263.801 43.7333 262.798 43.328 261.561 43.328H256.889V58.368H264.633C266.425 58.368 267.982 57.6213 269.305 56.128C270.627 54.592 271.459 52.7147 271.801 50.496H278.649ZM315.958 55.936C317.707 58.5813 319.841 59.904 322.358 59.904C322.358 60.672 322.23 61.4187 321.974 62.144C321.718 62.8693 321.377 63.488 320.95 64H302.518C302.049 63.488 301.665 62.8693 301.366 62.144C301.11 61.4187 300.982 60.672 300.982 59.904C303.286 59.904 304.438 59.328 304.438 58.176C304.438 57.6213 304.139 56.8533 303.542 55.872L298.486 47.68L292.79 55.872C292.406 56.4267 292.214 56.9813 292.214 57.536C292.214 58.2187 292.491 58.7947 293.046 59.264C293.601 59.6907 294.369 59.904 295.35 59.904C295.35 60.672 295.222 61.4187 294.966 62.144C294.71 62.8693 294.347 63.488 293.878 64H279.35C278.881 63.488 278.497 62.8693 278.198 62.144C277.942 61.4187 277.814 60.672 277.814 59.904C279.478 59.904 280.715 59.6907 281.526 59.264C282.379 58.7947 283.233 57.9627 284.086 56.768L294.838 42.048L284.598 27.264C282.763 24.6613 280.587 23.36 278.07 23.36C278.07 21.7387 278.539 20.3947 279.478 19.328H298.358C299.382 20.4373 299.894 21.7813 299.894 23.36C297.505 23.36 296.31 23.9147 296.31 25.024C296.31 25.4933 296.651 26.2827 297.334 27.392L302.134 35.136L306.23 27.648C306.657 26.88 306.87 26.24 306.87 25.728C306.87 25.0453 306.571 24.4907 305.974 24.064C305.377 23.5947 304.587 23.36 303.606 23.36C303.606 21.7387 304.097 20.3947 305.078 19.328H319.67C320.694 20.4373 321.206 21.7813 321.206 23.36C319.542 23.36 318.283 23.5947 317.43 24.064C316.577 24.5333 315.745 25.3653 314.934 26.56L305.526 40.192L315.958 55.936ZM357.769 18.56C358.452 20.0533 358.985 22.7627 359.369 26.688C359.753 30.6133 359.945 33.8347 359.945 36.352C359.39 36.5653 358.516 36.736 357.321 36.864C356.169 36.992 355.124 37.056 354.185 37.056C353.929 33.6427 353.502 31.0187 352.905 29.184C352.35 27.3493 351.582 26.0907 350.601 25.408C349.62 24.7253 348.34 24.384 346.761 24.384H345.673V56.448C345.673 57.6427 346.228 58.5173 347.337 59.072C348.446 59.6267 350.153 59.904 352.457 59.904C352.457 60.672 352.329 61.4187 352.073 62.144C351.817 62.8693 351.454 63.488 350.985 64H329.225C328.798 63.488 328.457 62.8693 328.201 62.144C327.945 61.4187 327.817 60.672 327.817 59.904C332.638 59.904 335.049 58.752 335.049 56.448V24.384H333.641C329.161 24.384 326.58 28.608 325.897 37.056C322.91 36.928 320.99 36.6933 320.137 36.352C320.137 33.8347 320.329 30.6133 320.713 26.688C321.097 22.7627 321.63 20.0533 322.313 18.56C324.276 18.56 326.025 18.816 327.561 19.328H352.521C354.142 18.816 355.892 18.56 357.769 18.56Z" fill="#E2E2E2"/>
<circle cx="179.5" cy="41.5" r="16.5" fill="#B3B3B3"/>
</svg>
