<svg width="434" height="100" viewBox="0 0 434 100" fill="none" xmlns="http://www.w3.org/2000/svg">
<g clip-path="url(#clip0_4_17)">
<path d="M365.25 15.625H352.75C351.024 15.625 349.625 17.0241 349.625 18.75V81.25C349.625 82.9759 351.024 84.375 352.75 84.375H365.25C366.976 84.375 368.375 82.9759 368.375 81.25V18.75C368.375 17.0241 366.976 15.625 365.25 15.625Z" stroke="#9F1239" stroke-width="8.5" stroke-linecap="round" stroke-linejoin="round"/>
<path d="M349.625 31.25H368.375" stroke="#9F1239" stroke-width="8" stroke-linecap="round" stroke-linejoin="round"/>
<path d="M384 15.625H371.5C369.774 15.625 368.375 17.0241 368.375 18.75V81.25C368.375 82.9759 369.774 84.375 371.5 84.375H384C385.726 84.375 387.125 82.9759 387.125 81.25V18.75C387.125 17.0241 385.726 15.625 384 15.625Z" stroke="#9F1239" stroke-width="8.5" stroke-linecap="round" stroke-linejoin="round"/>
<path d="M368.375 68.75H387.125" stroke="#9F1239" stroke-width="8" stroke-linecap="round" stroke-linejoin="round"/>
<path d="M402.569 14.6023L390.444 17.8523C388.77 18.3011 387.776 20.022 388.225 21.6961L404.475 82.3211C404.924 83.9952 406.645 84.9886 408.319 84.5398L420.444 81.2898C422.118 80.8411 423.111 79.1202 422.662 77.4461L406.412 16.8211C405.964 15.147 404.243 14.1536 402.569 14.6023Z" stroke="#9F1239" stroke-width="8.5" stroke-linecap="round" stroke-linejoin="round"/>
<path d="M400.875 70L419 65.1172" stroke="#9F1239" stroke-width="8" stroke-linecap="round" stroke-linejoin="round"/>
<path d="M391.188 33.75L409.313 28.9062" stroke="#9F1239" stroke-width="8" stroke-linecap="round" stroke-linejoin="round"/>
</g>
<path d="M31.168 50.96C33.7707 51.5147 35.8613 52.816 37.44 54.864C39.0187 56.8693 39.808 59.1733 39.808 61.776C39.808 65.5307 38.4853 68.5173 35.84 70.736C33.2373 72.912 29.5893 74 24.896 74H3.968V29.072H24.192C28.7573 29.072 32.32 30.1173 34.88 32.208C37.4827 34.2987 38.784 37.136 38.784 40.72C38.784 43.3653 38.08 45.5627 36.672 47.312C35.3067 49.0613 33.472 50.2773 31.168 50.96ZM14.912 47.248H22.08C23.872 47.248 25.2373 46.864 26.176 46.096C27.1573 45.2853 27.648 44.112 27.648 42.576C27.648 41.04 27.1573 39.8667 26.176 39.056C25.2373 38.2453 23.872 37.84 22.08 37.84H14.912V47.248ZM22.976 65.168C24.8107 65.168 26.2187 64.7627 27.2 63.952C28.224 63.0987 28.736 61.8827 28.736 60.304C28.736 58.7253 28.2027 57.488 27.136 56.592C26.112 55.696 24.6827 55.248 22.848 55.248H14.912V65.168H22.976ZM67.4035 74.448C63.1795 74.448 59.2968 73.4667 55.7555 71.504C52.2568 69.5413 49.4622 66.8107 47.3715 63.312C45.3235 59.7707 44.2995 55.8027 44.2995 51.408C44.2995 47.0133 45.3235 43.0667 47.3715 39.568C49.4622 36.0693 52.2568 33.3387 55.7555 31.376C59.2968 29.4133 63.1795 28.432 67.4035 28.432C71.6275 28.432 75.4888 29.4133 78.9875 31.376C82.5288 33.3387 85.3022 36.0693 87.3075 39.568C89.3555 43.0667 90.3795 47.0133 90.3795 51.408C90.3795 55.8027 89.3555 59.7707 87.3075 63.312C85.2595 66.8107 82.4862 69.5413 78.9875 71.504C75.4888 73.4667 71.6275 74.448 67.4035 74.448ZM67.4035 64.464C70.9875 64.464 73.8462 63.2693 75.9795 60.88C78.1555 58.4907 79.2435 55.3333 79.2435 51.408C79.2435 47.44 78.1555 44.2827 75.9795 41.936C73.8462 39.5467 70.9875 38.352 67.4035 38.352C63.7768 38.352 60.8755 39.5253 58.6995 41.872C56.5662 44.2187 55.4995 47.3973 55.4995 51.408C55.4995 55.376 56.5662 58.5547 58.6995 60.944C60.8755 63.2907 63.7768 64.464 67.4035 64.464ZM117.716 74.448C113.492 74.448 109.609 73.4667 106.068 71.504C102.569 69.5413 99.7747 66.8107 97.684 63.312C95.636 59.7707 94.612 55.8027 94.612 51.408C94.612 47.0133 95.636 43.0667 97.684 39.568C99.7747 36.0693 102.569 33.3387 106.068 31.376C109.609 29.4133 113.492 28.432 117.716 28.432C121.94 28.432 125.801 29.4133 129.3 31.376C132.841 33.3387 135.615 36.0693 137.62 39.568C139.668 43.0667 140.692 47.0133 140.692 51.408C140.692 55.8027 139.668 59.7707 137.62 63.312C135.572 66.8107 132.799 69.5413 129.3 71.504C125.801 73.4667 121.94 74.448 117.716 74.448ZM117.716 64.464C121.3 64.464 124.159 63.2693 126.292 60.88C128.468 58.4907 129.556 55.3333 129.556 51.408C129.556 47.44 128.468 44.2827 126.292 41.936C124.159 39.5467 121.3 38.352 117.716 38.352C114.089 38.352 111.188 39.5253 109.012 41.872C106.879 44.2187 105.812 47.3973 105.812 51.408C105.812 55.376 106.879 58.5547 109.012 60.944C111.188 63.2907 114.089 64.464 117.716 64.464ZM172.829 74L157.725 54.16V74H146.781V29.072H157.725V48.784L172.701 29.072H185.565L168.157 51.088L186.205 74H172.829ZM213.166 37.904C217.347 37.904 220.675 39.2693 223.15 42C225.667 44.688 226.926 48.4 226.926 53.136V74H216.046V54.608C216.046 52.2187 215.427 50.3627 214.19 49.04C212.952 47.7173 211.288 47.056 209.198 47.056C207.107 47.056 205.443 47.7173 204.206 49.04C202.968 50.3627 202.35 52.2187 202.35 54.608V74H191.406V38.288H202.35V43.024C203.459 41.4453 204.952 40.208 206.83 39.312C208.707 38.3733 210.819 37.904 213.166 37.904ZM268.194 55.568C268.194 56.592 268.131 57.6587 268.003 58.768H243.235C243.405 60.9867 244.109 62.6933 245.347 63.888C246.627 65.04 248.184 65.616 250.019 65.616C252.749 65.616 254.648 64.464 255.715 62.16H267.363C266.765 64.5067 265.677 66.6187 264.099 68.496C262.563 70.3733 260.621 71.8453 258.275 72.912C255.928 73.9787 253.304 74.512 250.403 74.512C246.904 74.512 243.789 73.7653 241.059 72.272C238.328 70.7787 236.195 68.6453 234.659 65.872C233.123 63.0987 232.355 59.856 232.355 56.144C232.355 52.432 233.101 49.1893 234.595 46.416C236.131 43.6427 238.264 41.5093 240.995 40.016C243.725 38.5227 246.861 37.776 250.403 37.776C253.859 37.776 256.931 38.5013 259.619 39.952C262.307 41.4027 264.397 43.472 265.891 46.16C267.427 48.848 268.194 51.984 268.194 55.568ZM256.995 52.688C256.995 50.8107 256.355 49.3173 255.075 48.208C253.795 47.0987 252.195 46.544 250.275 46.544C248.44 46.544 246.883 47.0773 245.603 48.144C244.365 49.2107 243.597 50.7253 243.299 52.688H256.995ZM295.088 74L288.24 64.08L282.48 74H270.64L282.416 55.76L270.32 38.288H282.608L289.456 48.144L295.216 38.288H307.056L295.088 56.272L307.376 74H295.088ZM331.497 64.72V74H325.929C321.961 74 318.868 73.04 316.649 71.12C314.43 69.1573 313.321 65.9787 313.321 61.584V47.376H308.969V38.288H313.321V29.584H324.265V38.288H331.433V47.376H324.265V61.712C324.265 62.7787 324.521 63.5467 325.033 64.016C325.545 64.4853 326.398 64.72 327.593 64.72H331.497Z" fill="#9F1239"/>
<defs>
<clipPath id="clip0_4_17">
<rect width="100" height="100" fill="white" transform="translate(334)"/>
</clipPath>
</defs>
</svg>
